#!OML:ASF F:\VICON\USERDATA\INSTALL\rory3\rory3.ASF
:FULLY-SPECIFIED
:DEGREES
1896
root 1.75136 9.96234 -5.22696 341.316 35.335 357.894
lowerback 30.2344 -0.607202 -2.31742
upperback 12.7782 -0.93432 -0.692816
thorax -2.13611 -0.321176 0.845782
lowerneck -12.394 -12.3918 -17.8577
upperneck 8.04684 -15.4556 14.5678
head 7.03572 -7.1862 5.76718
rclavicle -4.37326e-014 -1.27222e-014
rhumerus -6.55137 15.0678 -83.3649
rradius 85.7766
rwrist 42.2849
rhand -26.6121 12.9544
rfingers 7.12502
rthumb -0.0454429 -377.025
lclavicle -4.37326e-014 -1.27222e-014
lhumerus -5.51136 -5.53974 80.6468
lradius 81.6953
lwrist -20.1559
lhand -31.0272 20.18
lfingers 7.12502
lthumb -4.3094 50.1161
rfemur -75.5094 -21.0687 19.0189
rtibia 103.667
rfoot -3.13766 4.70044
rtoes 11.108
lfemur -74.5556 18.6502 -11.8872
ltibia 103.551
lfoot -7.62115 -18.0328
ltoes -5.10625
1897
root 1.75209 9.96782 -5.22665 341.383 35.273 358.012
lowerback 30.2099 -0.543116 -2.38788
upperback 12.75 -0.874652 -0.70092
thorax -2.15736 -0.294317 0.858995
lowerneck -12.479 -12.2251 -17.7527
upperneck 8.33171 -15.2241 14.3431
head 7.07404 -7.08118 5.71073
rclavicle -3.51849e-014 -1.51076e-014
rhumerus -6.67677 15.0292 -83.3771
rradius 85.9102
rwrist 42.3964
rhand -26.7699 12.8555
rfingers 7.12502
rthumb -0.197824 -377.124
lclavicle -3.51849e-014 -1.51076e-014
lhumerus -5.55071 -5.5997 80.6904
lradius 81.6701
lwrist -20.2049
lhand -31.0778 20.1699
lfingers 7.12502
lthumb -4.35827 50.105
rfemur -75.5257 -20.9288 18.8563
rtibia 103.718
rfoot -2.8608 4.79294
rtoes 10.0088
lfemur -74.4578 18.7499 -11.9437
ltibia 103.507
lfoot -7.82515 -18.0128
ltoes -5.80357
1898
root 1.75281 9.97478 -5.22454 341.559 35.1536 358.292
lowerback 30.0981 -0.405837 -2.60384
upperback 12.7499 -0.760107 -0.745595
thorax -2.10645 -0.245587 0.897783
lowerneck -12.6237 -12.0365 -17.4934
upperneck 8.59029 -14.9614 14.0151
head 7.08854 -6.96083 5.59948
rclavicle -3.51849e-014 1.51076e-014
rhumerus -6.77571 14.9811 -83.3857
rradius 86.1344
rwrist 42.2581
rhand -26.7208 12.778
rfingers 7.12502
rthumb -0.15043 -377.202
lclavicle -3.51849e-014 1.51076e-014
lhumerus -5.56215 -5.69452 80.6863
lradius 81.6426
lwrist -20.2691
lhand -31.0587 19.9798
lfingers 7.12502
lthumb -4.33984 49.9154
rfemur -75.6116 -20.6873 18.5266
rtibia 103.752
rfoot -2.29545 4.88231
rtoes 9.62771
lfemur -74.3229 18.9561 -12.1034
ltibia 103.402
lfoot -7.95775 -18.0348
ltoes -6.39075
1899
root 1.7526 9.978 -5.22474 341.664 35.1104 358.402
lowerback 30.0437 -0.347871 -2.67585
upperback 12.7152 -0.707892 -0.750013
thorax -2.12168 -0.222817 0.918134
lowerneck -12.6527 -11.8076 -17.3187
upperneck 8.75606 -14.6479 13.7502
head 7.05974 -6.82056 5.53529
rclavicle 8.3092e-014 -4.13472e-014
rhumerus -6.86921 14.973 -83.3825
rradius 86.4011
rwrist 42.0142
rhand -26.4308 12.6519
rfingers 7.12502
rthumb 0.129665 -377.328
lclavicle 8.3092e-014 -4.13472e-014
lhumerus -5.62032 -5.76848 80.6753
lradius 81.6792
lwrist -20.258
lhand -31.0523 19.9626
lfingers 7.12502
lthumb -4.33365 49.8983
rfemur -75.7972 -20.5726 18.3256
rtibia 103.837
rfoot -1.73864 4.92255
rtoes 9.68211
lfemur -74.3106 19.0668 -12.1509
ltibia 103.306
lfoot -7.80585 -18.1423
ltoes -6.41159
1900
root 1.7356 10.0142 -5.24821 341.701 35.1168 358.449
lowerback 30.0205 -0.32082 -2.67549
upperback 12.7137 -0.672622 -0.747058
thorax -2.1142 -0.205399 0.910313
lowerneck -12.6706 -11.6024 -17.0734
upperneck 8.89209 -14.3689 13.4209
head 7.01554 -6.69933 5.43348
rclavicle -3.93594e-014 -2.22639e-014
rhumerus -6.93715 14.944 -83.3641
rradius 86.7426
rwrist 41.6784
rhand -26.0468 12.5816
rfingers 7.12502
rthumb 0.5005 -377.398
lclavicle -3.93594e-014 -2.22639e-014
lhumerus -5.62261 -5.83606 80.7016
lradius 81.6989
lwrist -20.2979
lhand -30.9991 19.8969
lfingers 7.12502
lthumb -4.28226 49.8336
rfemur -75.7086 -20.4484 18.1611
rtibia 103.708
rfoot -1.32393 4.8507
rtoes 9.6059
lfemur -74.043 19.0475 -12.1991
ltibia 102.961
lfoot -7.81228 -18.25
ltoes -6.91044
1901
root 1.73576 10.0202 -5.24932 341.804 35.1041 358.546
lowerback 29.9508 -0.292782 -2.68912
upperback 12.7098 -0.641056 -0.776929
thorax -2.08861 -0.18979 0.875287
lowerneck -12.7744 -11.366 -16.7814
upperneck 9.11533 -14.0431 13.0479
head 7.00143 -6.55329 5.31273
rclavicle -4.90998e-014 5.32743e-014
rhumerus -6.99715 14.8943 -83.3742
rradius 87.0929
rwrist 41.4617
rhand -25.7507 12.6721
rfingers 7.12502
rthumb 0.786552 -377.306
lclavicle -4.90998e-014 5.32743e-014
lhumerus -5.68929 -5.90516 80.6816
lradius 81.76
lwrist -20.3476
lhand -30.9223 19.7998
lfingers 7.12502
lthumb -4.20815 49.738
rfemur -75.8912 -20.3472 17.9114
rtibia 103.795
rfoot -0.647339 4.86116
rtoes 9.44565
lfemur -74.0397 19.1148 -12.2524
ltibia 102.85
lfoot -7.8745 -18.4916
ltoes -7.37665
1902
root 1.73537 10.0262 -5.24903 341.879 35.0539 358.621
lowerback 29.945 -0.25481 -2.69991
upperback 12.666 -0.600064 -0.79268
thorax -2.13724 -0.169319 0.851875
lowerneck -12.984 -11.1016 -16.5748
upperneck 9.53501 -13.6694 12.7155
head 7.07303 -6.38024 5.21943
rclavicle -2.14687e-014 -2.3059e-014
rhumerus -7.11232 14.8836 -83.4015
rradius 87.4202
rwrist 41.3491
rhand -25.7444 12.5685
rfingers 7.12502
rthumb 0.792648 -377.41
lclavicle -2.14687e-014 -2.3059e-014
lhumerus -5.78521 -5.91896 80.6903
lradius 81.7404
lwrist -20.5396
lhand -31.0135 19.7487
lfingers 7.12502
lthumb -4.29614 49.6851
rfemur -76.0667 -20.2032 17.6506
rtibia 103.902
rfoot 0.147202 4.93246
rtoes 9.53585
lfemur -74.0224 19.2377 -12.2818
ltibia 102.755
lfoot -7.89568 -18.6824
ltoes -7.44469
1903
root 1.73438 10.0314 -5.24706 341.83 34.9426 358.512
lowerback 29.9681 -0.209782 -2.61283
upperback 12.6246 -0.520988 -0.731091
thorax -2.19821 -0.129041 0.845995
lowerneck -13.0982 -10.8275 -16.4408
upperneck 9.91091 -13.2874 12.4353
head 7.12487 -6.20685 5.15934
rclavicle 7.03698e-014 -3.93594e-014
rhumerus -7.23717 14.8607 -83.3704
rradius 87.7688
rwrist 41.2226
rhand -25.71 12.5177
rfingers 7.12502
rthumb 0.825848 -377.46
lclavicle 7.03698e-014 -3.93594e-014
lhumerus -5.80818 -5.91811 80.7492
lradius 81.6445
lwrist -20.7836
lhand -31.1419 19.7642
lfingers 7.12502
lthumb -4.42012 49.6981
rfemur -76.2346 -20.0367 17.5696
rtibia 104.053
rfoot 0.762411 5.06399
rtoes 8.79898
lfemur -73.9928 19.4311 -12.1252
ltibia 102.725
lfoot -7.88375 -18.8808
ltoes -7.24891
1904
root 1.73453 10.036 -5.24572 341.731 34.8347 358.351
lowerback 29.977 -0.180474 -2.4456
upperback 12.6053 -0.438393 -0.670897
thorax -2.22952 -0.0841268 0.791316
lowerneck -13.0779 -10.5356 -16.2761
upperneck 10.1402 -12.8973 12.1695
head 7.10641 -6.03327 5.10589
rclavicle -3.97569e-015 -1.59028e-015
rhumerus -7.39633 14.8052 -83.376
rradius 88.147
rwrist 41.1395
rhand -25.5164 12.528
rfingers 7.12502
rthumb 1.01286 -377.449
lclavicle -3.97569e-015 -1.59028e-015
lhumerus -5.84 -5.92441 80.8328
lradius 81.5751
lwrist -21.0552
lhand -30.9497 19.781
lfingers 7.12502
lthumb -4.23456 49.7186
rfemur -76.3576 -19.8982 17.5337
rtibia 104.208
rfoot 1.17244 5.24928
rtoes 6.65427
lfemur -73.9404 19.6087 -11.9195
ltibia 102.722
lfoot -7.86336 -19.0454
ltoes -7.30971
1905
root 1.73467 10.0427 -5.24538 341.71 34.7431 358.231
lowerback 29.9047 -0.14768 -2.3191
upperback 12.6241 -0.358389 -0.617279
thorax -2.17992 -0.0425366 0.75321
lowerneck -13.2722 -10.234 -15.9259
upperneck 10.4547 -12.4684 11.692
head 7.12031 -5.84125 4.94986
rclavicle -4.53229e-014 4.01545e-014
rhumerus -7.47658 14.7755 -83.3653
rradius 88.5352
rwrist 40.9905
rhand -25.4195 12.5726
rfingers 7.12502
rthumb 1.10637 -377.404
lclavicle -4.53229e-014 4.01545e-014
lhumerus -5.74163 -5.91477 80.9167
lradius 81.4721
lwrist -21.3055
lhand -30.7249 19.7716
lfingers 7.12502
lthumb -4.01751 49.7134
rfemur -76.5181 -19.763 17.436
rtibia 104.355
rfoot 1.42722 5.32305
rtoes 4.48309
lfemur -73.953 19.7957 -11.8013
ltibia 102.702
lfoot -7.89416 -19.2058
ltoes -7.10604
1906
root 1.73596 10.0498 -5.24549 341.732 34.6749 358.117
lowerback 29.7806 -0.130284 -2.21034
upperback 12.6735 -0.29822 -0.531097
thorax -2.07115 -0.0129174 0.767091
lowerneck -13.6675 -9.928 -15.5327
upperneck 10.9022 -11.9916 11.0361
head 7.19355 -5.63165 4.72614
rclavicle -3.77691e-015 -1.19271e-014
rhumerus -7.45488 14.7665 -83.2566
rradius 88.9015
rwrist 40.8427
rhand -25.2698 12.5917
rfingers 7.12502
rthumb 1.251 -377.384
lclavicle -3.77691e-015 -1.19271e-014
lhumerus -5.37273 -5.7169 81.1285
lradius 81.2239
lwrist -21.6037
lhand -30.6873 19.7669
lfingers 7.12502
lthumb -3.98121 49.7095
rfemur -76.7275 -19.6811 17.3241
rtibia 104.551
rfoot 1.53352 5.40348
rtoes 2.20393
lfemur -74.0274 19.9647 -11.7387
ltibia 102.67
lfoot -7.89164 -19.3034
ltoes -6.65456
1907
root 1.73588 10.0576 -5.24733 341.785 34.6343 358.074
lowerback 29.683 -0.11838 -2.21338
upperback 12.7245 -0.274757 -0.43641
thorax -1.96948 -0.00583968 0.865618
lowerneck -13.9628 -9.59572 -15.2203
upperneck 11.2574 -11.4794 10.4344
head 7.22987 -5.40978 4.54117
rclavicle -1.98785e-016 -2.22639e-014
rhumerus -7.4435 14.8153 -83.1381
rradius 89.2687
rwrist 40.8066
rhand -25.0544 12.7039
rfingers 7.12502
rthumb 1.45901 -377.271
lclavicle -1.98785e-016 -2.22639e-014
lhumerus -4.9222 -5.32123 81.4243
lradius 80.9262
lwrist -21.9749
lhand -30.6747 19.6988
lfingers 7.12502
lthumb -3.96897 49.6416
rfemur -76.8927 -19.6123 17.1284
rtibia 104.78
rfoot 1.52481 5.64727
rtoes 0.103103
lfemur -74.0614 20.0927 -11.7273
ltibia 102.613
lfoot -7.82663 -19.4352
ltoes -6.40885
